<svg width="34" height="34" fill="none" xmlns="http://www.w3.org/2000/svg"><path d="M10 .333h14c5.333 0 9.667 4.334 9.667 9.667v14A9.667 9.667 0 0 1 24 33.667H10C4.667 33.667.333 29.333.333 24V10A9.667 9.667 0 0 1 10 .333Zm-.333 3.334a6 6 0 0 0-6 6v14.666c0 3.317 2.683 6 6 6h14.666a6 6 0 0 0 6-6V9.667c0-3.317-2.683-6-6-6H9.667Zm16.083 2.5a2.084 2.084 0 1 1 0 4.167 2.084 2.084 0 0 1 0-4.167ZM17 8.667a8.333 8.333 0 1 1 0 16.666 8.333 8.333 0 0 1 0-16.666ZM17 12a5 5 0 1 0 0 10 5 5 0 0 0 0-10Z" fill="#191B1E"/></svg>