<svg width="36" height="29" fill="none" xmlns="http://www.w3.org/2000/svg"><path d="M35.433 4a14.278 14.278 0 0 1-4.1 1.15 7.165 7.165 0 0 0 3.134-3.967 14.401 14.401 0 0 1-4.534 1.75C28.617 1.5 26.767.667 24.667.667c-3.917 0-7.117 3.2-7.117 7.15 0 .566.067 1.116.183 1.633A20.324 20.324 0 0 1 3 1.983a7.074 7.074 0 0 0-.967 3.584c0 2.483 1.25 4.683 3.184 5.933-1.184 0-2.284-.333-3.25-.833v.05A7.155 7.155 0 0 0 7.7 17.733a7.033 7.033 0 0 1-3.217.117 7.134 7.134 0 0 0 6.667 4.967c-2.527 2-5.66 3.082-8.883 3.066a14.53 14.53 0 0 1-1.7-.1A20.241 20.241 0 0 0 11.533 29c13.134 0 20.35-10.9 20.35-20.35 0-.317 0-.617-.016-.933 1.4-1 2.6-2.267 3.566-3.717Z" fill="#191B1E"/></svg>